<svg class="browser-placeholder" width="2134" height="1232" viewBox="0 0 2134 1232" fill="none" xmlns="http://www.w3.org/2000/svg">
<!--https://www.figma.com/resources/assets/isometric-browser-mockup/-->
<g clip-path="url(#clip0)">
<path d="M0 719.953L1247.1 -8.39233e-05L2133.93 511.966L886.829 1231.92L0 719.953Z" fill="white"/>
<rect width="1440" height="928" transform="matrix(0.866044 -0.499967 0.866044 0.499967 84.0063 768.45)" fill="#EFEFEF"/>
<g clip-path="url(#clip1)">
<rect width="1440" height="50" transform="matrix(0.866044 -0.499967 0.866044 0.499967 40.7041 743.451)" fill="#DCDCDC"/>
<rect width="1149" height="30" rx="2" transform="matrix(0.866044 -0.499967 0.866044 0.499967 164.548 681.955)" fill="white"/>
<path fill-rule="evenodd" clip-rule="evenodd" d="M135.969 705.454C132.159 707.654 132.159 711.253 135.969 713.453C139.78 715.653 146.015 715.653 149.826 713.453C153.03 711.603 153.463 708.754 151.558 706.454L149.826 707.454C150.778 709.204 150.345 711.153 148.094 712.453C145.236 714.103 140.559 714.103 137.701 712.453C134.843 710.803 134.843 708.104 137.701 706.454C139.173 705.604 140.992 705.254 142.897 705.454V708.454L148.96 704.954L142.897 701.454V703.454C140.473 703.854 137.874 704.354 135.969 705.454Z" fill="#818181"/>
<path fill-rule="evenodd" clip-rule="evenodd" d="M91.8009 737.952L81.2351 744.051L81.2351 738.452L78.8102 738.452V746.451H92.6669V745.051L82.9672 745.051L93.5329 738.952L91.8009 737.952Z" fill="#818181"/>
<path fill-rule="evenodd" clip-rule="evenodd" d="M106.524 722.453L106.524 723.853L116.223 723.853L105.658 729.952L107.39 730.952L117.955 724.852L117.955 730.452L120.38 730.452V722.453H106.524Z" fill="#818181"/>
<rect width="1440" height="47" transform="matrix(0.866044 -0.499967 0.866044 0.499967 0 719.953)" fill="#EAEAEA"/>
<circle r="7.5" transform="matrix(0.866044 -0.499967 0.866044 0.499967 44.1682 717.953)" fill="#818181"/>
<circle r="7.5" transform="matrix(0.866044 -0.499967 0.866044 0.499967 67.5515 704.454)" fill="#818181"/>
<circle r="7.5" transform="matrix(0.866044 -0.499967 0.866044 0.499967 90.9348 690.955)" fill="#818181"/>
<path d="M111.354 666.793C111.048 666.281 111.274 665.714 111.937 665.331L219.758 603.086C220.421 602.703 221.404 602.573 222.29 602.749L268.474 611.96L127.309 693.455L111.354 666.793Z" fill="#DCDCDC"/>
</g>
</g>
<defs>
<clipPath id="clip0">
<path d="M0 719.953L1247.1 -8.39233e-05L2133.93 511.966L886.829 1231.92L0 719.953Z" fill="white"/>
</clipPath>
<clipPath id="clip1">
<path d="M0 719.953L1247.1 -8.39233e-05L1331.11 48.4967L84.0063 768.45L0 719.953Z" fill="white"/>
</clipPath>
</defs>
</svg>