<?xml version="1.0" encoding="UTF-8"?>
<svg width="113" height="114" xmlns="http://www.w3.org/2000/svg" xmlns:svg="http://www.w3.org/2000/svg" xmlns:xlink="http://www.w3.org/1999/xlink" version="1.0">
 <metadata id="metadata2193">image/svg+xml</metadata>
 <defs id="defs4">
  <linearGradient id="linearGradient4671">
   <stop id="stop4673" offset="0" stop-color="#ffd43b"/>
   <stop id="stop4675" offset="1" stop-color="#ffe873"/>
  </linearGradient>
  <linearGradient id="linearGradient4689">
   <stop id="stop4691" offset="0" stop-color="#5a9fd4"/>
   <stop id="stop4693" offset="1" stop-color="#306998"/>
  </linearGradient>
  <linearGradient id="linearGradient1475" x1="0.5" x2="0.234427" xlink:href="#linearGradient4671" y1="0.822756" y2="0.449144"/>
 </defs>
 <g class="layer">
  <title>Layer 1</title>
  <path d="m55.51016,0.39797c-4.58366,0.0213 -8.96094,0.41222 -12.8125,1.09375c-11.34622,2.00451 -13.40625,6.2001 -13.40625,13.9375l0,10.21875l26.8125,0l0,3.40625l-26.8125,0l-10.0625,0c-7.79246,0 -14.61576,4.68372 -16.75,13.59375c-2.46182,10.21297 -2.57102,16.58603 0,27.25c1.90592,7.93785 6.45754,13.59375 14.25,13.59375l9.21875,0l0,-12.25c0,-8.8499 7.65714,-16.65624 16.75,-16.65625l26.78125,0c7.45495,0 13.40625,-6.13816 13.40625,-13.625l0,-25.53125c0,-7.26634 -6.12998,-12.72477 -13.40625,-13.9375c-4.60599,-0.76672 -9.3851,-1.11505 -13.96875,-1.09375zm-14.5,8.21875c2.76954,0 5.03125,2.29865 5.03125,5.125c-0.00001,2.81634 -2.26171,5.09375 -5.03125,5.09375c-2.77948,0 -5.03125,-2.27741 -5.03125,-5.09375c-0.00001,-2.82635 2.25177,-5.125 5.03125,-5.125z" fill="url(#linearGradient4689)" id="path1948" xmlns="http://www.w3.org/2000/svg"/>
  <path d="m86.22891,29.05422l0,11.90625c0,9.23076 -7.8259,17 -16.75,17l-26.78125,0c-7.33584,0 -13.40625,6.27849 -13.40625,13.625l0,25.53125c0,7.26634 6.31858,11.54032 13.40625,13.625c8.48733,2.49561 16.62623,2.94663 26.78125,0c6.75015,-1.95439 13.40625,-5.88761 13.40625,-13.625l0,-10.21875l-26.78125,0l0,-3.40625l26.78125,0l13.40625,0c7.79246,0 10.69625,-5.43541 13.40624,-13.59375c2.79933,-8.39888 2.68022,-16.47577 0,-27.25c-1.92578,-7.75744 -5.60387,-13.59375 -13.40624,-13.59375l-10.0625,0zm-15.0625,64.65625c2.77947,0.00001 5.03125,2.27742 5.03125,5.09375c-0.00001,2.82635 -2.25178,5.125 -5.03125,5.125c-2.76955,0 -5.03125,-2.29865 -5.03125,-5.125c0,-2.81633 2.26169,-5.09375 5.03125,-5.09375z" fill="url(#linearGradient1475)" id="path1950" xmlns="http://www.w3.org/2000/svg"/>
 </g>
</svg>