<svg id="Layer_1" data-name="Layer 1" xmlns="http://www.w3.org/2000/svg" viewBox="0 0 1059 212"><defs><style>.cls-1{fill:#006bab;}</style></defs><polygon points="380.9 24.93 380.9 187.27 498.8 187.27 498.8 157.34 415.3 157.34 415.3 122.88 489.08 122.88 489.08 91.36 415.3 91.36 415.3 52.5 498.8 52.5 498.8 24.93 380.9 24.93"/><path d="M518.48,24.7h73.23c40.71,0,56.17,25.75,56.17,52.18s-15.46,52.83-56.17,52.83H554.19v57.68H518.48Zm35.71,75.72,28.25,0c16.37,0,30.87-2.86,30.87-23.59s-15-24.38-31.38-24.38H554.19Z"/><path class="cls-1" d="M40.58,48.47s-8.45,6.28-17.94,26.07c0,0-8.75,20.09-5.89,37.49,0,0,5.12,38.57,44.07,46.69,0,0,30.3,7.05,50.21-8.43a61.61,61.61,0,0,0,24.73-37.86s4.3-17.46-5.18-33.31a32.61,32.61,0,0,0-14.69-13.24c-6.22-2.67-14.16-3.3-19,2.16-3.1,3.47-3.55,10.51.8,13.25a11.48,11.48,0,0,0,1.63.85S92.8,76.32,99,70.43c1.63-1.53,4.56-2.07,6.67-2,5.83.12,11.6,4.65,13.59,10,3.31,8.93,3.76,19.07-.65,27.7-3.53,6.91-9.47,11.54-16.39,14.71,0,0-19.88,11.87-45.61-2.12,0,0-19.16-8.74-23.82-35.16a57.62,57.62,0,0,1,7.76-35.07"/><path class="cls-1" d="M99.58,76.15a6.19,6.19,0,0,1,5.06-1.7c2.23.29,4.86,2.17,5.36,4.46a8.73,8.73,0,0,1,0,3.26A14.52,14.52,0,0,1,92.89,94a22.26,22.26,0,0,1-4.35-1.39C70.89,84.93,74.83,60,83.91,47.26c3.2-4.48,7-7.08,11.66-9.86,0,0,13.53-8,41.53-2.11-1.57-.33-3.55-2.06-5-2.76a73.56,73.56,0,0,0-14.86-5.12C101.81,23.78,84.79,24,69.83,29.46a52.82,52.82,0,0,0-13.18,6.91c-7.06,5.17-12.53,16.49-13.11,25.2a.22.22,0,0,1,0,.08c-7.76,52.9,62,64.5,72,30.52,5.18-17.64-14-26.18-17-15Z"/><path class="cls-1" d="M39.35,163.08s27.27,16.78,63.74,7.28c0,0,19.41-3.87,34.21-23.45a68.37,68.37,0,0,0,13.18-46.53s-1.66-25-20.42-37a34.74,34.74,0,0,0-31.64-1.81s-12,6-5,18.38c0,0,2.8,4.83,6.71,4.93,0,0-7.91,1.68-12.23-8.94,0,0-5-13.81,5.57-25,0,0,13.61-16.68,42.67-8.23,25.94,7.55,42,33.34,42,59.81,0,0,2.17,18.21-8.3,39.75a82.48,82.48,0,0,1-21.6,27s-12.5,11.64-35,16.52c0,0-19.49,6.36-47.82-4.84,0,0-17.11-6.91-26.12-17.84"/><path d="M279.5,100.43v29.09h42.57A48.51,48.51,0,1,1,320.49,80h40.67c-10.91-32.1-45.61-55.2-81.49-55.2A81.29,81.29,0,1,0,361.2,106.1c0-1.9-.07-3.79-.2-5.67Z"/><path d="M1042.83,152.71a6.38,6.38,0,0,1-.49,2.51,5.88,5.88,0,0,1-3.22,3.18,6,6,0,0,1-2.28.44,6.23,6.23,0,0,1-2.43-.47,5.69,5.69,0,0,1-1.89-1.28,6,6,0,0,1-1.25-2,6.44,6.44,0,0,1-.44-2.43,6.13,6.13,0,0,1,.48-2.5,5.85,5.85,0,0,1,1.3-1.94,5.76,5.76,0,0,1,1.93-1.24,5.93,5.93,0,0,1,2.3-.45,5.87,5.87,0,0,1,2.28.45,5.68,5.68,0,0,1,1.91,1.24,5.88,5.88,0,0,1,1.31,1.94,6.3,6.3,0,0,1,.49,2.5m-1.31,0a5.61,5.61,0,0,0-.36-2,4.87,4.87,0,0,0-1-1.61,4.41,4.41,0,0,0-1.49-1,4.5,4.5,0,0,0-1.83-.37,4.64,4.64,0,0,0-1.86.37,4.31,4.31,0,0,0-1.49,1,4.72,4.72,0,0,0-1,1.61,5.61,5.61,0,0,0-.36,2,5.78,5.78,0,0,0,.33,2,4.83,4.83,0,0,0,.94,1.6,4.48,4.48,0,0,0,1.48,1.09,4.55,4.55,0,0,0,2,.4,4.67,4.67,0,0,0,1.83-.36,4.58,4.58,0,0,0,1.49-1,4.89,4.89,0,0,0,1-1.59,5.64,5.64,0,0,0,.36-2.06m-5.89,3.51h-1.11v-6.79h2.56a3.13,3.13,0,0,1,1.85.46,1.73,1.73,0,0,1,.62,1.49,1.66,1.66,0,0,1-.5,1.35,2.38,2.38,0,0,1-1.26.51l1.9,3h-1.26l-1.75-2.9h-1Zm1.24-3.85a5.74,5.74,0,0,0,.6,0,1.12,1.12,0,0,0,.5-.14.81.81,0,0,0,.34-.32,1,1,0,0,0,.13-.58.81.81,0,0,0-.13-.49,1.09,1.09,0,0,0-.36-.28,1.41,1.41,0,0,0-.47-.12,4.52,4.52,0,0,0-.51,0h-1.34v2Z"/><rect x="666.44" y="24.7" width="2.23" height="162.71"/><rect x="686.97" y="24.69" width="8.45" height="40.78"/><polygon points="703.24 24.69 712.15 24.69 728.31 53.13 728.31 24.69 736.23 24.69 736.23 65.47 727.73 65.47 711.16 36.53 711.16 65.47 703.24 65.47 703.24 24.69"/><path d="M750.34,52.88a8.27,8.27,0,0,0,1.55,4.18q2.11,2.52,7.25,2.52a15.34,15.34,0,0,0,5-.67c2.42-.85,3.64-2.42,3.64-4.73A3.48,3.48,0,0,0,766,51.06a19.08,19.08,0,0,0-5.65-1.91l-4.4-1q-6.49-1.44-8.93-3.13-4.11-2.82-4.11-8.82a11.75,11.75,0,0,1,4-9.11q4-3.61,11.83-3.62a18.1,18.1,0,0,1,11.11,3.42q4.59,3.41,4.82,9.91H766.5a5.85,5.85,0,0,0-3.29-5.23,11.28,11.28,0,0,0-5.07-1,9.66,9.66,0,0,0-5.37,1.33,4.21,4.21,0,0,0-2,3.71,3.5,3.5,0,0,0,2,3.26,24.76,24.76,0,0,0,5.41,1.69l7.14,1.69a18.18,18.18,0,0,1,7,3c2.42,1.92,3.64,4.69,3.64,8.33a11.74,11.74,0,0,1-4.31,9.28q-4.32,3.69-12.19,3.69-8,0-12.64-3.64a12,12,0,0,1-4.61-10Z"/><rect x="781.24" y="24.69" width="8.45" height="40.78"/><path d="M825,37.42a8,8,0,0,0-4.73-5.84,11.5,11.5,0,0,0-4.66-.91,10.12,10.12,0,0,0-8.08,3.71q-3.16,3.7-3.16,11.17t3.42,10.63a11.26,11.26,0,0,0,7.79,3.12,10.08,10.08,0,0,0,7-2.46A10.57,10.57,0,0,0,826,50.39h-9.41V43.58h17V65.47h-5.63L827,60.38a19.14,19.14,0,0,1-4.42,4.07,15.51,15.51,0,0,1-8.28,2.07,17.2,17.2,0,0,1-13.25-5.61q-5.39-5.64-5.39-15.43t5.44-15.87q5.45-6,14.39-6,7.75,0,12.46,3.94a14.67,14.67,0,0,1,5.4,9.84Z"/><polygon points="841.57 65.47 841.57 24.69 850.02 24.69 850.02 40.24 865.84 40.24 865.84 24.69 874.29 24.69 874.29 65.47 865.84 65.47 865.84 47.27 850.02 47.27 850.02 65.47 841.57 65.47"/><polygon points="912.04 24.69 912.04 31.91 899.86 31.91 899.86 65.47 891.3 65.47 891.3 31.91 879.07 31.91 879.07 24.69 912.04 24.69"/><path d="M695.92,92.72v26.62h7.85q6,0,8.41-6a21,21,0,0,0,1.3-7.78c0-4.15-.65-7.33-2-9.56s-3.89-3.33-7.76-3.33Zm15.59-6.2a13.44,13.44,0,0,1,6.94,5.18,18.29,18.29,0,0,1,2.9,6.58,31.35,31.35,0,0,1,.77,6.75,27.08,27.08,0,0,1-3.26,13.78q-4.43,7.6-13.65,7.61H687.66V85.64h17.55a21.27,21.27,0,0,1,6.3.88"/><path d="M737,92.72v11h9.15a9.58,9.58,0,0,0,4.09-.67q2.41-1.16,2.41-4.59,0-3.7-2.33-5a8.45,8.45,0,0,0-3.94-.72Zm17.57-6a9.92,9.92,0,0,1,3.81,2.85A12.45,12.45,0,0,1,760.44,93a11.48,11.48,0,0,1,.75,4.29,12.18,12.18,0,0,1-1.46,5.71,8.2,8.2,0,0,1-4.83,4,7.61,7.61,0,0,1,4,3.22,13.51,13.51,0,0,1,1.17,6.38v2.74a20.46,20.46,0,0,0,.23,3.79,3.37,3.37,0,0,0,1.57,2.32v1h-9.39c-.26-.91-.44-1.63-.55-2.19a19.34,19.34,0,0,1-.36-3.51l-.06-3.79q0-3.9-1.34-5.2c-.87-.87-2.48-1.3-4.85-1.3H737v16H728.7V85.64h19.46a17.5,17.5,0,0,1,6.42,1"/><rect x="768.65" y="85.64" width="8.45" height="40.78"/><polygon points="808.87 85.64 817.7 85.64 803.83 126.42 795.79 126.42 782.03 85.64 791.11 85.64 799.95 116.6 808.87 85.64"/><polygon points="852.87 92.86 831.33 92.86 831.33 101.52 851.1 101.52 851.1 108.6 831.33 108.6 831.33 119.09 853.86 119.09 853.86 126.42 823.02 126.42 823.02 85.64 852.87 85.64 852.87 92.86"/><path d="M866.62,113.83a8.27,8.27,0,0,0,1.55,4.18c1.41,1.68,3.82,2.52,7.25,2.52a15.66,15.66,0,0,0,5-.67c2.42-.85,3.63-2.42,3.63-4.73a3.49,3.49,0,0,0-1.78-3.13,19.23,19.23,0,0,0-5.65-1.9l-4.41-1q-6.5-1.44-8.92-3.13-4.11-2.82-4.12-8.83a11.72,11.72,0,0,1,4-9.1q4-3.61,11.82-3.62a18.19,18.19,0,0,1,11.12,3.41q4.59,3.42,4.82,9.92h-8.18a5.84,5.84,0,0,0-3.28-5.23,11.28,11.28,0,0,0-5.07-1A9.61,9.61,0,0,0,869,92.86a4.2,4.2,0,0,0-2,3.71,3.49,3.49,0,0,0,2,3.26,24.62,24.62,0,0,0,5.4,1.69l7.14,1.69a17.89,17.89,0,0,1,7,3c2.43,1.91,3.64,4.69,3.64,8.32a11.71,11.71,0,0,1-4.31,9.29c-2.87,2.46-6.94,3.69-12.18,3.69s-9.57-1.21-12.64-3.64a12,12,0,0,1-4.61-10Z"/><rect x="686.97" y="146.59" width="8.45" height="40.78"/><polygon points="728.31 146.59 728.31 175.02 712.15 146.59 703.23 146.59 703.23 187.37 711.16 187.37 711.16 158.43 727.73 187.37 736.24 187.37 736.24 146.59 728.31 146.59"/><polygon points="769.15 146.59 769.15 175.02 752.99 146.59 744.07 146.59 744.07 187.37 752 187.37 752 158.43 768.57 187.37 777.07 187.37 777.07 146.59 769.15 146.59"/><path d="M811.08,177.54q3-3.73,3-10.62t-3-10.61a9.71,9.71,0,0,0-8-3.75A9.82,9.82,0,0,0,795,156.3q-3,3.73-3,10.62t3,10.62a10.52,10.52,0,0,0,16.09,0m5.31,6.2q-4.6,4.75-13.34,4.76t-13.33-4.76q-6.19-5.84-6.19-16.82,0-11.21,6.19-16.82,4.6-4.75,13.33-4.76t13.34,4.76q6.17,5.61,6.16,16.82,0,11-6.16,16.82"/><polygon points="852.85 146.59 843.93 177.54 835.1 146.59 826.01 146.59 839.78 187.37 847.81 187.37 861.69 146.59 852.85 146.59"/><path d="M879,155.91l5.14,16H873.66Zm-4.72-9.33L859.7,187.36h8.89l2.76-8.38h15l2.69,8.38h9.22l-14.4-40.78Z"/><polygon points="895.86 146.59 895.86 153.81 908.09 153.81 908.09 187.37 916.65 187.37 916.65 153.81 928.83 153.81 928.83 146.59 895.86 146.59"/><rect x="933.11" y="146.59" width="8.45" height="40.78"/><path d="M975.54,177.54q3-3.73,3-10.62t-3-10.61a9.72,9.72,0,0,0-8-3.75,9.82,9.82,0,0,0-8.06,3.74q-3,3.73-3,10.62t3,10.62a10.52,10.52,0,0,0,16.09,0m5.31,6.2q-4.61,4.75-13.34,4.76t-13.33-4.76Q948,177.9,948,166.92q0-11.21,6.19-16.82,4.61-4.75,13.33-4.76t13.34,4.76q6.17,5.61,6.16,16.82,0,11-6.16,16.82"/><polygon points="1018.43 146.59 1018.43 175.02 1002.27 146.59 993.36 146.59 993.36 187.37 1001.28 187.37 1001.28 158.43 1017.85 187.37 1026.36 187.37 1026.36 146.59 1018.43 146.59"/></svg>